<?xml version="1.0" encoding="utf-8"?>
<!-- Generator: Adobe Illustrator 16.0.0, SVG Export Plug-In . SVG Version: 6.00 Build 0)  -->
<!DOCTYPE svg PUBLIC "-//W3C//DTD SVG 1.1//EN" "http://www.w3.org/Graphics/SVG/1.1/DTD/svg11.dtd">
<svg version="1.1" id="Calque_1" xmlns="http://www.w3.org/2000/svg" xmlns:xlink="http://www.w3.org/1999/xlink" x="0px" y="0px"
	 width="841.89px" height="595.28px" viewBox="0 0 841.89 595.28" enable-background="new 0 0 841.89 595.28" xml:space="preserve">
<g>
	<defs>
		<rect id="SVGID_1_" width="841.89" height="595.28"/>
	</defs>
	<clipPath id="SVGID_2_">
		<use xlink:href="#SVGID_1_"/>
	</clipPath>
	<path clip-path="url(#SVGID_2_)" fill="#676C6E" d="M345.828,185.258c21.757,0.113,38.625,5.561,50.595,16.35
		c13.216,11.906,19.824,26.214,19.824,42.924c0,16.824-6.608,31.159-19.824,43.008c-11.97,10.731-28.838,16.154-50.595,16.266
		h-24.501V185.258H345.828z M328.808,192.217v104.714h16.926c19.017,0,34.01-4.748,44.984-14.254
		c11.721-10.507,17.584-23.223,17.584-38.145c0-14.865-5.863-27.581-17.584-38.147c-10.974-9.444-25.967-14.168-44.984-14.168
		H328.808z"/>
	<polygon clip-path="url(#SVGID_2_)" fill="#676C6E" points="494.847,274.212 553.48,182.994 553.48,303.805 545.999,303.805
		545.999,208.229 494.754,287.625 443.692,208.396 443.692,303.805 436.211,303.805 436.211,183.161 	"/>
	<path clip-path="url(#SVGID_2_)" fill="#676C6E" d="M614.121,262.641c-0.748,0.056-1.492,0.083-2.243,0.083h-22.447v41.082h-7.479
		V185.258h34.693c10.103,1.23,18.672,5.003,25.719,11.317c8.419,7.602,12.63,16.715,12.63,27.333c0,10.73-4.211,19.871-12.63,27.413
		c-5.862,5.257-12.563,8.694-20.106,10.314l30.486,42.17h-9.163L614.121,262.641z M589.431,192.05v63.882h22.447
		c9.788,0,18.173-3.111,25.157-9.346c6.982-6.233,10.475-13.79,10.475-22.678c0-8.832-3.492-16.35-10.475-22.553
		c-6.984-6.206-15.369-9.305-25.157-9.305H589.431z"/>
</g>
<g>
	<defs>
		<path id="SVGID_3_" d="M199.801,190.366c-4.655,2.737-8.929,6.053-12.728,9.851c-9.312,9.31-15.741,21.507-17.827,35.133
			c-0.483,3.159-0.734,6.39-0.734,9.683c0,17.491,7.087,33.323,18.539,44.797c3.801,3.799,8.082,7.116,12.735,9.857
			c9.325,5.484,20.179,8.655,31.766,8.715h0.662c17.375-0.087,33.103-7.171,44.501-18.572
			c11.458-11.474,18.543-27.306,18.543-44.797c0-3.293-0.247-6.524-0.729-9.683c-2.092-13.626-8.516-25.823-17.831-35.133
			c-11.466-11.469-27.311-18.563-44.811-18.563C220.177,181.654,209.211,184.829,199.801,190.366"/>
	</defs>
	<clipPath id="SVGID_4_">
		<use xlink:href="#SVGID_3_"/>
	</clipPath>
	<g clip-path="url(#SVGID_4_)">
		<g>
			<defs>
				<rect id="SVGID_5_" x="168.512" y="181.654" width="126.746" height="126.748"/>
			</defs>
			<clipPath id="SVGID_6_">
				<use xlink:href="#SVGID_5_"/>
			</clipPath>
			<g clip-path="url(#SVGID_6_)">

					<image width="265" height="265" xlink:href="88CB16FACFD8828E.jpg"  transform="matrix(0.48 0 0 0.48 168.5122 181.6543)">
				</image>
			</g>
		</g>
	</g>
</g>
<g>
	<defs>
		<rect id="SVGID_7_" width="841.89" height="595.28"/>
	</defs>
	<clipPath id="SVGID_8_">
		<use xlink:href="#SVGID_7_"/>
	</clipPath>
	<path clip-path="url(#SVGID_8_)" fill="#28AB57" d="M240.6,145.69c0.641-6.709-4.044-12.642-10.463-13.25
		c-6.417-0.614-12.139,4.331-12.777,11.037c-0.64,6.713,4.047,12.644,10.463,13.255C234.24,157.343,239.959,152.398,240.6,145.69"/>
	<path clip-path="url(#SVGID_8_)" fill="#676C6E" d="M188.991,338.577c-1.114-14.553,2.869-33.06,12.9-48.138
		c16.492-24.796,43.812-38.095,63.791-38.466l-0.012,0.002c0,0,4.201-0.488,4.201-1.366c0-1.075-4.201-1.352-4.201-1.352
		c-41.418-2.101-71.151,38.124-75.059,43.709c3.661-30.049,14.583-68.601,42.294-108.87c0.328,0.373,0.657,0.746,0.961,1.102
		c61.021,67.405,58.386,122.258,58.386,122.258c0,2.92,2.368,5.285,5.288,5.285c2.918,0,5.283-2.365,5.283-5.285
		c0,0-0.515-71.499-64.366-128.076c-0.434-0.39-0.893-0.791-1.364-1.2c9.999-13.761,21.981-27.682,36.363-41.492
		c0,0,2.299-2.319,1.578-3.057c0,0-0.729-0.923-3.376,1.401c-15.187,13.304-28.008,26.552-38.852,39.58
		c-7.023-5.666-15.802-12.002-20.962-15.312c0,0-2.17-1.6-3.039-0.586c-0.77,0.819,1.448,2.848,1.448,2.848
		c4.51,4.108,12.304,11.506,18.502,18.018c-55.672,69.785-54.708,132.356-50.318,160.526v-0.009c0.348,2.952,2.996,5.012,5.909,4.59
		C187.261,344.271,189.34,341.532,188.991,338.577"/>
	<polygon clip-path="url(#SVGID_8_)" fill="#4FB76C" points="43.51,367.838 46.963,446.899 798.358,414.089 794.909,335.033 	"/>
	<path clip-path="url(#SVGID_8_)" fill="#FFFFFF" d="M760.061,390.259l-0.198-4.601l-2.224,0.095
		c-2.011,0.091-3.017-1.036-3.103-2.996l-0.631-14.516l5.185-0.229l-0.178-4.121l-5.188,0.224l-0.358-8.153l-5.4,0.232l0.358,8.159
		l-3.069,0.133l0.178,4.127l3.073-0.133l0.643,14.778c0.169,3.867,2.655,7.359,7.684,7.144L760.061,390.259z M741.314,391.079
		l-1.174-26.848l-5.396,0.237l0.716,16.363c0.182,4.131-2.283,6.095-5.305,6.229c-3.018,0.13-5.481-1.567-5.667-5.749l-0.713-16.365
		l-5.396,0.234l0.751,17.161c0.13,3.018,0.877,5.534,3.026,7.45c1.653,1.468,3.971,2.268,6.725,2.146
		c2.702-0.118,5.258-1.235,7.023-3.329l0.115,2.698L741.314,391.079z M707.581,379.075c0.125,2.914,0.035,5.733-1.536,7.447
		c-0.963,1.048-2.314,1.69-3.902,1.76c-1.593,0.07-2.944-0.453-3.994-1.416c-1.712-1.571-2.049-4.372-2.174-7.286
		c-0.13-2.913-0.039-5.727,1.532-7.445c0.963-1.049,2.265-1.637,3.854-1.704c1.589-0.07,2.991,0.4,4.04,1.362
		C707.119,373.36,707.452,376.161,707.581,379.075 M712.977,378.838c-0.198-4.502-0.979-7.863-3.634-10.401
		c-1.826-1.72-4.537-2.979-8.194-2.82c-3.654,0.16-6.188,1.65-7.854,3.523c-2.426,2.758-2.914,6.177-2.715,10.679
		c0.198,4.558,0.979,7.92,3.634,10.455c1.826,1.721,4.48,2.981,8.137,2.821c3.656-0.158,6.246-1.648,7.912-3.521
		C712.687,386.815,713.176,383.396,712.977,378.838 M686.875,393.453l-0.198-4.601l-2.228,0.099c-2.013,0.086-3.013-1.036-3.099-3
		l-0.635-14.515l5.188-0.226l-0.182-4.127l-5.188,0.229l-0.354-8.158l-5.4,0.238l0.358,8.152l-3.074,0.135l0.183,4.127l3.067-0.135
		l0.648,14.779c0.169,3.867,2.655,7.364,7.683,7.144L686.875,393.453z M671.236,369.467c-1.934-1.774-3.924-2.374-6.521-2.262
		c-3.018,0.134-5.715,1.575-7.006,3.539l-0.13-2.909l-5.287,0.233l1.17,26.844l5.396-0.233l-0.713-16.312
		c-0.159-3.708,2.176-6.146,5.084-6.276c1.857-0.076,2.836,0.462,4.106,1.628L671.236,369.467z M640.383,385.775
		c0.082,1.908-0.234,3.198-0.993,4.026c-1.372,1.441-2.9,1.666-4.968,1.758c-3.393,0.146-4.99-1.161-5.094-3.602
		c-0.107-2.438,1.472-3.939,4.652-4.083l6.308-0.271L640.383,385.775z M646.201,395.232l-0.785-17.953
		c-0.264-6.094-4.105-9.051-11.469-8.731c-4.45,0.198-7.058,1.213-9.468,4.281l3.688,3.187c1.403-1.974,2.802-2.725,5.771-2.854
		c4.188-0.186,5.953,1.385,6.1,4.779l0.087,1.907l-7.101,0.31c-6.146,0.268-9.125,3.631-8.927,8.133
		c0.1,2.279,0.927,4.312,2.365,5.682c1.714,1.57,3.972,2.265,7.308,2.118c3.342-0.146,5.158-1.019,7.036-3.061l0.104,2.431
		L646.201,395.232z M614.212,383.151c0.207,4.769-0.298,8.985-5.171,9.198c-4.878,0.211-5.802-3.942-6.009-8.712
		c-0.211-4.766,0.354-8.931,5.228-9.146C613.138,374.279,614.005,378.385,614.212,383.151 M619.607,382.917
		c-0.177-4.079-0.694-8.624-3.509-11.206c-1.546-1.415-3.967-2.21-6.669-2.089c-2.918,0.125-5.06,0.963-6.963,3.484l-0.125-2.858
		l-5.292,0.229l1.649,37.704l5.396-0.233l-0.596-13.61c2.062,2.245,4.32,2.889,7.183,2.764c2.702-0.121,4.994-1.122,6.409-2.667
		C619.673,391.619,619.784,386.996,619.607,382.917 M579.344,401.335l-0.41-9.318l-6.134,0.267l0.626,14.353L579.344,401.335z
		 M561.099,383.297l-12.078,0.526c-0.017-1.645,0.052-2.443,0.531-3.687c0.76-2.05,2.659-3.514,5.201-3.625s4.507,1.183,5.443,3.159
		C560.778,380.871,560.973,381.656,561.099,383.297 M566.61,386.819l-0.104-2.378c-0.332-7.631-4.748-12.738-11.952-12.423
		c-6.885,0.298-11.159,5.52-10.784,14.21c0.45,10.221,5.945,13.531,12.675,13.237c4.713-0.201,7.247-1.748,9.88-4.617l-3.582-3.082
		c-1.826,1.993-3.376,2.908-6.397,3.043c-4.395,0.189-6.958-2.616-7.161-7.23L566.61,386.819z M538.212,399.945l-1.174-26.853
		l-5.396,0.237l1.174,26.849L538.212,399.945z M536.965,367.788l-0.246-5.711l-5.715,0.246l0.25,5.715L536.965,367.788z
		 M527.986,373.494l-5.719,0.25l-5.478,19.183l-7.183-18.63l-5.72,0.25l11.024,26.417l4.395-0.193L527.986,373.494z
		 M484.196,392.595c0.082,1.907-0.233,3.198-0.993,4.027c-1.368,1.442-2.9,1.666-4.964,1.756c-3.393,0.148-4.989-1.165-5.098-3.6
		c-0.107-2.438,1.477-3.945,4.653-4.083l6.307-0.276L484.196,392.595z M490.015,402.048l-0.781-17.947
		c-0.268-6.096-4.104-9.053-11.469-8.733c-4.454,0.195-7.062,1.209-9.47,4.283l3.69,3.185c1.398-1.973,2.801-2.728,5.767-2.856
		c4.186-0.183,5.956,1.389,6.104,4.781l0.081,1.908l-7.1,0.312c-6.143,0.267-9.125,3.626-8.927,8.132
		c0.1,2.279,0.928,4.312,2.37,5.68c1.709,1.568,3.967,2.268,7.308,2.12c3.337-0.146,5.158-1.019,7.031-3.065l0.108,2.435
		L490.015,402.048z M465.39,403.122l-0.203-4.596l-2.383,0.103c-2.171,0.096-2.957-0.933-3.047-3l-1.312-29.978l-5.396,0.238
		l1.325,30.293c0.173,3.97,2.542,7.311,7.679,7.087L465.39,403.122z M431.078,388.979L419,389.504
		c-0.017-1.648,0.052-2.446,0.531-3.689c0.76-2.052,2.66-3.515,5.202-3.626c2.538-0.113,4.507,1.182,5.443,3.164
		C430.759,386.547,430.953,387.333,431.078,388.979 M436.59,392.495l-0.104-2.378c-0.332-7.632-4.748-12.738-11.952-12.423
		c-6.885,0.298-11.162,5.521-10.782,14.209c0.449,10.227,5.943,13.533,12.673,13.24c4.714-0.203,7.243-1.744,9.881-4.615
		l-3.588-3.082c-1.822,1.99-3.375,2.91-6.393,3.038c-4.394,0.194-6.957-2.615-7.16-7.229L436.59,392.495z M410.156,405.535
		l-0.203-4.601l-2.223,0.099c-2.011,0.086-3.013-1.036-3.099-3l-0.634-14.516l5.188-0.226l-0.182-4.126l-5.188,0.229l-0.354-8.159
		l-5.399,0.238l0.354,8.153l-3.07,0.134l0.182,4.126l3.069-0.134l0.647,14.78c0.169,3.867,2.655,7.364,7.683,7.144L410.156,405.535z
		 M391.41,406.356l-1.174-26.85l-5.396,0.237l0.712,16.365c0.182,4.13-2.279,6.098-5.3,6.228c-3.022,0.134-5.486-1.562-5.668-5.75
		l-0.712-16.362l-5.395,0.236l0.746,17.158c0.134,3.017,0.877,5.533,3.03,7.454c1.654,1.463,3.967,2.262,6.726,2.141
		c2.702-0.115,5.252-1.233,7.022-3.328l0.117,2.698L391.41,406.356z M357.672,394.353c0.13,2.913,0.039,5.73-1.532,7.444
		c-0.962,1.055-2.318,1.696-3.906,1.767c-1.589,0.068-2.94-0.458-3.989-1.42c-1.718-1.572-2.05-4.368-2.18-7.283
		c-0.125-2.913-0.034-5.732,1.537-7.445c0.962-1.054,2.262-1.64,3.855-1.71c1.588-0.069,2.987,0.402,4.04,1.364
		C357.21,388.642,357.547,391.438,357.672,394.353 M363.068,394.118c-0.194-4.507-0.98-7.869-3.634-10.402
		c-1.822-1.723-4.533-2.982-8.189-2.822c-3.656,0.158-6.194,1.647-7.86,3.521c-2.422,2.758-2.909,6.177-2.715,10.679
		c0.199,4.558,0.984,7.922,3.639,10.454c1.821,1.724,4.48,2.987,8.136,2.827c3.656-0.159,6.246-1.652,7.912-3.525
		C362.779,402.091,363.267,398.672,363.068,394.118 M336.971,408.73l-0.203-4.603l-2.223,0.101
		c-2.012,0.086-3.017-1.036-3.099-2.996l-0.635-14.521l5.189-0.225l-0.182-4.126l-5.188,0.229l-0.354-8.157l-5.4,0.236l0.354,8.158
		l-3.069,0.134l0.181,4.122l3.069-0.134l0.643,14.785c0.169,3.862,2.655,7.358,7.688,7.139L336.971,408.73z M306.868,413.232
		l-0.406-9.32l-6.138,0.269l0.626,14.352L306.868,413.232z M294.876,402.346c-0.207-4.766-3.271-7.015-8.321-7.222l-4.257-0.185
		c-2.874-0.14-3.772-1.322-3.841-2.91c-0.091-2.017,1.489-3.519,4.722-3.661c2.547-0.112,4.951,0.316,6.708,1.671l3.237-3.587
		c-2.581-2.062-6.06-2.759-10.087-2.581c-5.616,0.246-9.984,3.402-9.756,8.646c0.208,4.717,3.216,6.862,8.266,7.065l4.308,0.187
		c2.607,0.094,3.665,1.216,3.743,3.021c0.112,2.547-2.435,3.824-5.72,3.967c-2.65,0.116-5.589-0.341-7.856-2.469l-3.392,3.703
		c3.315,2.983,7.048,3.561,11.447,3.368C290.491,411.077,295.123,407.961,294.876,402.346 M267.855,411.751l-1.173-26.849
		l-5.396,0.238l0.716,16.363c0.178,4.131-2.283,6.096-5.304,6.229c-3.022,0.133-5.482-1.568-5.668-5.75l-0.712-16.364l-5.396,0.233
		l0.747,17.163c0.134,3.016,0.881,5.532,3.03,7.449c1.654,1.468,3.971,2.267,6.725,2.145c2.702-0.116,5.258-1.234,7.023-3.327
		l0.116,2.698L267.855,411.751z M234.118,399.747c0.13,2.913,0.039,5.732-1.532,7.445c-0.962,1.049-2.314,1.692-3.906,1.762
		c-1.589,0.069-2.94-0.454-3.989-1.416c-1.713-1.571-2.05-4.373-2.175-7.286c-0.13-2.914-0.039-5.728,1.532-7.445
		c0.963-1.05,2.262-1.637,3.854-1.705c1.589-0.069,2.992,0.4,4.041,1.363C233.656,394.031,233.993,396.833,234.118,399.747
		 M239.514,399.51c-0.194-4.503-0.98-7.864-3.635-10.398c-1.821-1.722-4.532-2.983-8.188-2.823c-3.656,0.159-6.19,1.649-7.86,3.523
		c-2.422,2.757-2.91,6.176-2.711,10.678c0.199,4.558,0.98,7.921,3.634,10.454c1.827,1.723,4.481,2.982,8.137,2.824
		c3.656-0.16,6.246-1.65,7.912-3.523C239.229,407.486,239.712,404.068,239.514,399.51 M213.417,414.125l-0.203-4.601l-2.223,0.099
		c-2.012,0.086-3.013-1.036-3.099-3l-0.635-14.516l5.188-0.226l-0.181-4.126l-5.188,0.229l-0.354-8.158l-5.4,0.238l0.354,8.153
		l-3.069,0.135l0.181,4.126l3.069-0.135l0.647,14.779c0.169,3.868,2.655,7.364,7.684,7.146L213.417,414.125z M186.124,390.648
		c-1.934-1.774-3.924-2.374-6.518-2.263c-3.018,0.135-5.715,1.575-7.01,3.54l-0.125-2.909l-5.292,0.232l1.174,26.844l5.396-0.236
		l-0.713-16.309c-0.164-3.708,2.172-6.146,5.085-6.274c1.852-0.079,2.832,0.461,4.105,1.627L186.124,390.648z M160.825,416.421
		l-1.174-26.844l-5.396,0.234l0.717,16.367c0.181,4.131-2.284,6.096-5.305,6.229c-3.017,0.129-5.482-1.567-5.667-5.75l-0.713-16.368
		l-5.395,0.237l0.751,17.159c0.129,3.021,0.876,5.533,3.025,7.455c1.654,1.463,3.972,2.265,6.726,2.144
		c2.702-0.12,5.257-1.238,7.023-3.328l0.116,2.698L160.825,416.421z M127.092,404.422c0.125,2.913,0.034,5.729-1.537,7.445
		c-0.962,1.049-2.313,1.693-3.902,1.762c-1.592,0.068-2.944-0.458-3.993-1.421c-1.713-1.565-2.05-4.368-2.175-7.281
		c-0.13-2.914-0.039-5.732,1.532-7.445c0.963-1.049,2.266-1.642,3.855-1.709c1.588-0.07,2.991,0.4,4.04,1.363
		C126.63,398.706,126.962,401.508,127.092,404.422 M132.487,404.185c-0.198-4.502-0.979-7.865-3.634-10.403
		c-1.826-1.721-4.537-2.982-8.193-2.823c-3.656,0.16-6.189,1.65-7.856,3.523c-2.426,2.758-2.913,6.176-2.715,10.683
		c0.199,4.554,0.98,7.916,3.635,10.454c1.826,1.723,4.48,2.983,8.136,2.824c3.656-0.161,6.246-1.65,7.912-3.527
		C132.198,412.161,132.686,408.742,132.487,404.185 M99.708,405.617c0.208,4.766-0.297,8.983-5.175,9.195
		c-4.873,0.215-5.797-3.942-6.009-8.707c-0.207-4.771,0.354-8.936,5.232-9.147C98.629,396.742,99.501,400.849,99.708,405.617
		 M105.104,405.38c-0.177-4.079-0.695-8.624-3.509-11.201c-1.546-1.416-3.971-2.215-6.674-2.094
		c-2.913,0.125-5.054,0.963-6.962,3.483l-0.126-2.857l-5.287,0.233l1.644,37.7l5.396-0.233l-0.591-13.61
		c2.059,2.245,4.32,2.889,7.182,2.764c2.702-0.121,4.99-1.119,6.41-2.663C105.164,414.082,105.281,409.459,105.104,405.38"/>
</g>
</svg>
