<?xml version="1.0" encoding="utf-8"?>
<!-- Generator: Adobe Illustrator 25.3.1, SVG Export Plug-In . SVG Version: 6.00 Build 0)  -->
<svg version="1.1" id="Calque_1" xmlns="http://www.w3.org/2000/svg" xmlns:xlink="http://www.w3.org/1999/xlink" x="0px" y="0px"
	 viewBox="0 0 200 130" style="enable-background:new 0 0 200 130;" xml:space="preserve">
<style type="text/css">
	.st0{fill:#231F20;}
	.st1{fill:#243B7D;}
	.st2{fill:#ED1C24;}
	.st3{fill:#939598;}
	.st4{enable-background:new    ;}
</style>
<g id="vect">
	<path class="st0" d="M57.2,121.3c0.4,0,0.8,0.3,0.6,1.2l-2.1,0.5C56.1,122.1,56.7,121.3,57.2,121.3 M58.4,124.7h-0.4
		c-0.5,0.6-1.1,1.1-1.6,1.1c-0.6,0-0.9-0.3-0.9-1.1c0-0.3,0-0.6,0.1-0.9l3.4-1.1c0.7-1.5-0.1-2.2-1-2.2c-1.6,0-3.4,2.6-3.4,5
		c0,1,0.5,1.6,1.3,1.6C56.6,127.1,57.6,126.2,58.4,124.7 M57.7,119.8l2.4-2.2v-0.3h-1.3l-1.5,2.5H57.7z M50.4,121.4h1.1l-1.8,4.9
		c-0.2,0.4,0.1,0.8,0.5,0.8c1,0,2.6-1,3.2-2.4h-0.3c-0.4,0.5-1.3,1.1-2,1.2l1.6-4.6h1.7l0.2-0.7H53l0.6-1.8h-0.7l-1.2,1.8l-1.4,0.2
		V121.4L50.4,121.4z M48.9,121.2c0.1-0.3,0-0.6-0.2-0.7c-0.1,0-0.1,0-0.2-0.1c-1,0-2.1,0.9-2.6,2.1h0.3c0.3-0.4,0.8-0.9,1.3-1
		l-1.9,4.8c-0.1,0.2,0,0.5,0.2,0.7c0.1,0,0.1,0.1,0.2,0.1c0.9,0,2-0.9,2.5-2.1h-0.3c-0.3,0.4-0.8,0.9-1.3,1L48.9,121.2z M49.2,118.7
		c0.4,0,0.8-0.4,0.8-0.8l0,0c0-0.4-0.4-0.8-0.8-0.8c-0.4,0-0.8,0.4-0.8,0.8l0,0C48.4,118.4,48.8,118.7,49.2,118.7
		C49.2,118.7,49.2,118.7,49.2,118.7 M38.5,126.1c-0.2,0.6,0,0.9,0.6,0.9c0.3,0.1,0.6-0.2,0.6-0.4l1.3-3.4c0.6-0.7,1.8-1.5,2.3-1.5
		c0.4,0,0.3,0.3,0.1,0.7l-2,3.8c-0.2,0.3-0.1,0.6,0.2,0.8c0.1,0.1,0.2,0.1,0.3,0.1c1,0,2.1-0.9,2.6-2.1h-0.3c-0.3,0.4-0.8,0.9-1.3,1
		l1.7-3.4c0.2-0.4,0.3-0.8,0.3-1.2c0.1-0.5-0.3-0.9-0.7-0.9c-0.1,0-0.1,0-0.1,0c-0.8,0-1.7,0.9-2.7,2.1v-0.9c0-0.7-0.2-1.2-0.8-1.2
		c-0.4,0-0.7,0.3-1,0.8v0.1c0.6,0,0.9,0.9,0.5,1.9L38.5,126.1z M38.5,121.9c0.2-0.8,0.1-1.5-0.5-1.5c-0.7,0-0.9,0.6-1.6,2.1v-0.9
		c0-0.7-0.2-1.2-0.8-1.2c-0.7,0-1.3,1-1.8,2.1h0.3c0.3-0.5,0.6-0.8,0.9-0.8c0.3,0,0.4,0.4,0,1.4l-1.3,2.9c-0.2,0.6,0,0.9,0.6,0.9
		c0.3,0.1,0.6-0.2,0.6-0.4l1.3-3.4c0.4-0.4,0.7-0.8,1.1-1.3L38.5,121.9L38.5,121.9z M31.1,121.3c0.4,0,0.8,0.3,0.6,1.2l-2.1,0.5
		C30,122.1,30.6,121.3,31.1,121.3 M32.2,124.7h-0.4c-0.5,0.6-1.1,1.1-1.6,1.1c-0.6,0-0.9-0.3-0.9-1.1c0-0.3,0-0.6,0.1-0.9l3.4-1.1
		c0.7-1.5-0.1-2.2-1-2.2c-1.6,0-3.4,2.6-3.4,5c0,1,0.5,1.6,1.3,1.6C30.5,127,31.4,126.2,32.2,124.7 M24.3,121.4h1.1l-1.8,4.9
		c-0.2,0.4,0.1,0.8,0.5,0.8c1,0,2.6-1,3.2-2.4H27c-0.4,0.5-1.3,1.1-2,1.2l1.6-4.6h1.7l0.2-0.7h-1.6l0.6-1.8h-0.6l-1.2,1.8l-1.4,0.2
		L24.3,121.4z M18.2,125.2c0-1.5,1.7-3.5,2.6-3.5c0.2,0,0.4,0,0.6,0.1l-1,2.6c-0.6,0.7-1.4,1.5-1.8,1.5
		C18.3,125.8,18.2,125.6,18.2,125.2 M23.3,120.2l-0.5,0l-0.6,0.6h-0.1c-2.8,0-5.2,3.1-5.2,5.4c-0.1,0.5,0.3,0.9,0.8,1
		c0.1,0,0.1,0,0.2,0c0.7,0,1.4-1,2.2-2.1l0,0.4c-0.1,1.1,0.2,1.7,0.8,1.7c0.7,0,1.3-1,1.8-2.1h-0.3c-0.3,0.5-0.6,0.8-0.9,0.8
		c-0.2,0-0.4-0.5,0-1.4L23.3,120.2z M17.4,121.9c0.2-0.8,0.1-1.5-0.5-1.5c-0.7,0-0.9,0.6-1.6,2.1v-0.9c0-0.7-0.2-1.2-0.8-1.2
		c-0.7,0-1.3,1-1.8,2.1H13c0.3-0.5,0.6-0.8,0.9-0.8c0.3,0,0.4,0.4,0,1.4l-1.3,2.9c-0.2,0.6,0,0.9,0.6,0.9c0.3,0,0.5-0.1,0.6-0.4
		l1.3-3.4c0.4-0.4,0.7-0.8,1.1-1.3L17.4,121.9L17.4,121.9z M8.1,126.8l0.1-0.4c-1.6-0.3-1.8-0.3-1.2-2.1l0.7-1.8h1.8
		c0.8,0,0.8,0.3,0.7,1.2h0.5l1.1-2.9h-0.5c-0.4,0.7-0.7,1.2-1.6,1.2H7.9l0.9-2.6c0.3-0.8,0.5-1,1.5-1h0.8c1.1,0,1.3,0.3,1.3,1.4h0.4
		l0.4-2H6.5l-0.1,0.4c1.3,0.3,1.4,0.4,0.8,2.1l-1.4,4c-0.6,1.7-0.9,1.8-2.4,2.1l-0.1,0.4H8.1z"/>
	<path class="st0" d="M40.9,106.2c0.4,0,0.8,0.3,0.6,1.2l-2.1,0.5C39.9,106.9,40.5,106.2,40.9,106.2 M42.1,109.5h-0.4
		c-0.5,0.6-1.1,1.1-1.6,1.1c-0.6,0-0.9-0.3-0.9-1.1c0-0.3,0-0.6,0.1-0.9l3.4-1.1c0.7-1.5-0.1-2.2-1-2.2c-1.6,0-3.4,2.6-3.4,5
		c0,1,0.5,1.6,1.3,1.6C40.4,111.9,41.3,111,42.1,109.5 M41.4,104.6l2.4-2.2v-0.3h-1.3l-1.5,2.5H41.4z M34.1,106.2h1.1l-1.8,4.9
		c-0.2,0.4,0.1,0.8,0.5,0.8c1,0,2.6-1,3.2-2.4h-0.3c-0.4,0.5-1.3,1.1-2,1.2l1.6-4.6h1.7l0.2-0.7h-1.6l0.6-1.8h-0.6l-1.2,1.8
		l-1.4,0.2L34.1,106.2z M32.6,106c0.1-0.3,0-0.6-0.2-0.7c-0.1,0-0.1,0-0.2-0.1c-1,0-2.1,0.9-2.6,2.1H30c0.3-0.4,0.8-0.9,1.3-1
		l-1.9,4.8c-0.1,0.2,0,0.5,0.2,0.7c0.1,0,0.1,0.1,0.2,0.1c0.9,0,2-0.9,2.5-2.1H32c-0.3,0.4-0.8,0.9-1.3,1L32.6,106z M33,103.5
		c0.4,0,0.8-0.3,0.8-0.8s-0.3-0.8-0.8-0.8c-0.4,0-0.8,0.3-0.8,0.8c0,0,0,0,0,0C32.2,103.2,32.5,103.5,33,103.5
		C33,103.5,33,103.5,33,103.5 M26.5,110.8l3.4-8.9l-0.1-0.1l-2.1,0.2v0.3l0.4,0.3c0.4,0.3,0.3,0.6-0.1,1.5l-2.6,7
		c-0.2,0.3-0.1,0.6,0.2,0.8c0.1,0.1,0.2,0.1,0.3,0.1c1,0,2-0.9,2.5-2.1H28C27.6,110.3,27.1,110.7,26.5,110.8 M20.1,110
		c0-1.5,1.7-3.5,2.6-3.5c0.2,0,0.4,0,0.6,0.1l-1,2.6c-0.6,0.7-1.4,1.5-1.8,1.5C20.2,110.6,20.1,110.5,20.1,110 M25.2,105l-0.5,0
		l-0.6,0.6H24c-2.8,0-5.2,3.1-5.2,5.4c-0.1,0.5,0.3,0.9,0.8,1c0.1,0,0.1,0,0.2,0c0.7,0,1.4-1,2.2-2.1l0,0.4
		c-0.1,1.1,0.2,1.7,0.8,1.7c0.7,0,1.3-1,1.8-2.1h-0.3c-0.3,0.5-0.6,0.8-0.9,0.8c-0.2,0-0.4-0.5,0-1.4L25.2,105z M12.8,113.1
		c0-0.7,0.6-1,1.5-1.4c0.4,0.2,0.9,0.4,1.3,0.5c0.9,0.3,1.3,0.4,1.3,0.7c0,0.6-1,1-2.4,1C13.4,113.9,12.8,113.7,12.8,113.1
		 M15.4,109.1c-0.4,0-0.6-0.3-0.6-0.7c0-1.1,0.6-2.7,1.5-2.7c0.4,0,0.6,0.3,0.6,0.7C16.9,107.5,16.3,109.1,15.4,109.1 M18,112.5
		c0-0.8-0.7-1-1.8-1.4c-1-0.3-1.4-0.4-1.4-0.7c0-0.3,0.2-0.6,0.6-0.8c1.4-0.1,2.6-1.3,2.6-2.7c0-0.2-0.1-0.4-0.1-0.7h1.3l0.2-0.7
		h-2.1c-0.3-0.2-0.6-0.2-0.9-0.2c-1.5,0-2.7,1.2-2.8,2.7c0,0.8,0.5,1.5,1.3,1.6c-0.8,0.3-1.2,0.8-1.2,1.3c0,0.3,0.1,0.5,0.3,0.7
		c-1.8,0.5-2.5,1.2-2.5,2c0,0.8,1.1,1.2,2.4,1.2C16.1,114.7,18,113.5,18,112.5 M9.5,107.3c0.8,0,0.8,0.3,0.7,1.2h0.5l1.1-2.9h-0.5
		c-0.4,0.7-0.7,1.2-1.6,1.2H7.9l0.9-2.4c0.3-0.8,0.5-1,1.5-1h0.8c1.1,0,1.3,0.3,1.3,1.4h0.4l0.4-2H6.5l-0.1,0.4
		c1.3,0.3,1.4,0.4,0.8,2.1l-1.5,4c-0.6,1.7-0.9,1.8-2.4,2.1l-0.1,0.4h7.5l1.3-2.1h-0.5c-0.8,0.8-1.9,1.6-3.4,1.6
		c-2,0-1.8-0.1-1.1-1.9l0.7-1.9L9.5,107.3C9.5,107.3,9.5,107.3,9.5,107.3z M10.5,102.2l2.4-1.6v-0.3h-1.4l-1.3,1.9H10.5z"/>
	<path class="st0" d="M40.1,91c0.4,0,0.8,0.3,0.6,1.2l-2.1,0.5C39,91.7,39.6,91,40.1,91 M41.3,94.4h-0.4c-0.5,0.6-1.1,1.1-1.6,1.1
		c-0.6,0-0.9-0.3-0.9-1.1c0-0.3,0-0.6,0.1-0.9l3.4-1.1c0.7-1.5-0.1-2.2-1-2.2c-1.6,0-3.4,2.6-3.4,5c0,1,0.5,1.6,1.3,1.6
		C39.6,96.7,40.5,95.8,41.3,94.4 M40.6,89.5l2.4-2.2V87h-1.3l-1.5,2.5H40.6z M33.7,91h0.9l-1.8,4.9c-0.2,0.4,0.1,0.8,0.5,0.8
		c1,0,2.6-1,3.2-2.4h-0.3c-0.4,0.5-1.3,1.1-2,1.2l1.6-4.6h1.7l0.2-0.7H36l0.6-1.8H36l-1.2,1.8l-1.2,0.2V91z M32.8,91.6
		c0.2-0.8,0.1-1.5-0.5-1.5c-0.7,0-0.9,0.6-1.6,2.1v-0.9c0-0.7-0.2-1.2-0.8-1.2c-0.7,0-1.3,1-1.8,2.1h0.3c0.3-0.5,0.6-0.8,0.9-0.8
		c0.3,0,0.4,0.4,0,1.4L28,95.8c-0.2,0.6,0,0.9,0.6,0.9c0.3,0,0.5-0.1,0.6-0.4l1.3-3.4c0.4-0.4,0.7-0.8,1.1-1.3H32.8z M25.3,91
		c0.4,0,0.8,0.3,0.6,1.2l-2.1,0.5C24.2,91.7,24.9,91,25.3,91 M26.5,94.4h-0.4c-0.5,0.6-1.1,1.1-1.6,1.1c-0.6,0-0.9-0.3-0.9-1.1
		c0-0.3,0-0.6,0.1-0.9l3.4-1.1c0.7-1.5-0.1-2.2-1-2.2c-1.6,0-3.4,2.6-3.4,5c0,1,0.5,1.6,1.3,1.6C24.7,96.7,25.7,95.8,26.5,94.4
		 M18.2,95.7c-0.3,0-0.8-0.3-0.8-0.6c0.1-0.3,0.2-0.6,0.3-0.9l0.6-1.4c0.6-0.7,1.5-1.4,2-1.4c0.3,0,0.5,0.2,0.5,0.7
		C20.8,93.3,19.6,95.7,18.2,95.7 M22.1,91.4c0-1-0.4-1.3-1-1.3c-0.8,0-1.7,0.9-2.5,2l2-5.3l-0.1-0.1l-2.1,0.2v0.3l0.4,0.3
		c0.4,0.3,0.3,0.6-0.1,1.5l-2.2,5.6c-0.2,0.3-0.3,0.7-0.3,1c0,0.6,0.8,1.1,1.5,1.1C19.3,96.7,22.1,93.7,22.1,91.4 M15.5,90.8
		c0.1-0.3,0-0.6-0.2-0.7c-0.1,0-0.1,0-0.2-0.1c-1,0-2.1,0.9-2.6,2.1h0.3c0.3-0.4,0.8-0.9,1.3-1L12.3,96c-0.1,0.2,0,0.5,0.2,0.7
		c0.1,0,0.1,0.1,0.2,0.1c0.9,0,2-0.9,2.5-2.1h-0.3c-0.3,0.4-0.8,0.9-1.3,1L15.5,90.8z M15.8,88.4c0.4,0,0.8-0.4,0.8-0.8
		c0-0.4-0.4-0.8-0.8-0.8c-0.4,0-0.8,0.4-0.8,0.8l0,0C15,88,15.4,88.4,15.8,88.4 M10.9,87.6H6.5L6.4,88c1.3,0.3,1.4,0.4,0.8,2.1
		l-1.4,4c-0.6,1.7-0.9,1.8-2.4,2.1l-0.1,0.4H10l1.5-2.6h-0.5c-0.8,0.9-1.8,2-3.3,2c-1.1,0-1.3-0.2-0.7-1.9l1.4-4
		c0.6-1.7,0.9-1.8,2.4-2.1L10.9,87.6z"/>
	<path class="st1" d="M28.2,21.5c0.2-0.2,0.5-0.5,0.7-0.7l0,0c0.4-0.5,0.9-1,1.4-1.4c0.1-0.1,0.3-0.3,0.4-0.4
		c0.1-0.1,0.1-0.1,0.1-0.2c-0.2,0.1-0.3,0.3-0.6,0.3c-0.1,0-0.1-0.1-0.1-0.1l0.4-0.3h0c-0.1,0-0.1-0.1-0.1-0.1
		c-0.6-0.1-0.9,0.3-1.3,0.6c-0.1,0.1-0.2-0.1-0.2-0.1c-0.6,0.2-1.1,0.8-1.7,1v-0.1c-0.3,0.1-0.5,0.2-0.8,0.3c-0.3,0.1-0.7,0.1-1,0
		c-0.5,0.1-1,0.2-1.5,0.3H24c-0.3,0.1-0.5,0.2-0.8,0.3l0,0l-0.1,0.1c-0.1,0.1-0.2,0.2-0.3,0.3c-0.2,0.2-0.5,0.3-0.7,0.5
		c0,0-0.1,0-0.1,0c-0.2,0.2-0.4,0.4-0.7,0.6c-0.1,0-0.1,0-0.1,0l0,0l0,0l0.1-0.2c0-0.1,0.1-0.1,0.1-0.2s0.1-0.2,0.2-0.3
		c0,0,0,0,0-0.1l0,0c0,0,0,0-0.1,0c0.2-0.2,0.4-0.4,0.7-0.5l0,0c0,0-0.1,0-0.1-0.1c0-0.1,0.1-0.1,0.1-0.1c0,0,0,0,0,0l0,0
		c-0.1,0.1-0.1,0.1-0.2,0.1c-0.1,0.1-0.2,0.3-0.3,0.3c0,0-0.1,0-0.1,0c0,0,0,0-0.1,0l0,0v0l0,0l0,0c0,0,0,0,0,0l0,0c0,0,0,0,0-0.1
		l0,0l0.1-0.1l0-0.1c0,0,0-0.1,0.1-0.1c0,0,0-0.1,0-0.1c0,0,0,0,0,0c0.1-0.1,0.2-0.2,0.3-0.3h0c0.2-0.1,0.3-0.2,0.5-0.3l0.1-0.1
		c-0.2,0.1-0.4,0.2-0.7,0.3c0,0-0.1,0-0.1,0c0,0-0.1,0-0.1,0v0c0.1-0.1,0.2-0.1,0.3-0.2c0.1,0,0.1,0,0.1,0.1c1.3-1,3.1-0.8,4.7-1.3
		l0.4-0.2c0.2-0.1,0.4-0.3,0.6-0.4c0.3-0.2,0.6-0.6,0.7-0.9c0,0,0-0.1,0-0.1c-0.5,0.6-1.2,1-1.8,1.4c-0.9,0.4-1.8,0.4-2.8,0.5
		c0.1-0.1,0.1-0.1,0.2-0.1c0-0.1,0.1-0.2,0.2-0.2h0.1c0,0,0-0.1,0.1-0.1c0.1,0,0.2-0.1,0.2-0.1c-0.1-0.2-0.4,0.1-0.6,0
		c0.1-0.1,0.1-0.2,0.1-0.3h0.2c0-0.1,0-0.1,0.1-0.2c0.6-0.4,1.2-0.7,1.8-1c-0.1,0-0.2,0.1-0.3,0.1c0.1,0,0-0.1,0.1-0.1
		c0.4-0.1,0.8-0.4,1.3-0.6c-0.2,0-0.3,0.1-0.4,0c0.1,0,0.1-0.1,0.3-0.1v-0.1c0,0,0.1,0,0.1,0c0,0-0.1,0-0.1-0.1
		c0.1-0.1,0.2-0.1,0.2-0.1c-0.1,0-0.1,0-0.1-0.1c0.1-0.2,0.3-0.2,0.6-0.2c-0.1-0.1-0.2,0-0.2-0.1c0,0,0.1,0,0.1,0h-0.1
		c-0.1-0.1-0.1-0.1-0.1-0.2c0.3-0.3,0.3-0.7,0.4-1c-0.1,0-0.1,0-0.1-0.1c-0.4,0.4-1.1,0.6-1.7,0.8h-0.2c-0.2,0.1-0.5,0.1-0.7-0.1
		c-0.2-0.1-0.3-0.2-0.4-0.3c-0.3-0.2-0.7-0.4-1-0.5c-1-0.3-2.1-0.5-3.2-0.4c0.4-0.3,1-0.3,1.4-0.4c0.7-0.2,1.4-0.5,2.1-0.4
		c-0.1,0-0.3,0-0.4,0c-0.6-0.1-1.2,0.1-1.8,0.3c-0.4,0.1-0.8,0.2-1.2,0.3c-0.3,0.1-0.4,0.3-0.7,0.3v-0.1c0.4-0.5,0.9-1,1.6-1
		c0.8-0.1,1.4,0,2.2,0.1c0.5,0.1,1,0.2,1.6,0.3c0.2,0,0.2,0.3,0.4,0.4c0.3,0.1,0.5,0,0.8,0.2c0-0.1-0.1-0.2,0-0.2
		c0.2-0.2,0.4,0.1,0.6-0.1c0.3-0.2-0.3-0.6-0.5-0.9c0,0,0-0.1,0.1-0.1c0.3,0.3,0.6,0.6,1,0.8c0.2,0.1,0.7,0.2,0.6-0.1
		c-0.2-0.4-0.6-0.8-0.9-1.3v-0.2c-0.1,0-0.1-0.1-0.1-0.1V12c-0.2-0.1-0.1-0.3-0.2-0.4c-0.1-0.2-0.1-0.5-0.1-0.7
		c-0.1-0.2-0.1-0.5-0.2-0.7c-0.1-0.7-0.3-1.3-0.4-2c-0.1-0.8,0.5-1.4,0.8-2.1c0.3-0.5,0.7-1,1.2-1.3c0.2-0.5,0.4-0.9,0.8-1.3
		c0.4-0.4,0.8-0.7,1.3-0.8c0.4-0.2,0.7-0.3,1.1-0.4H3.2v22h20.2c0.8-0.6,1.6-0.8,2.7-1.4C26.6,22.4,27.8,21.9,28.2,21.5z M21.9,18.5
		c-0.1,0-0.2,0-0.2-0.1c0-0.2,0.3-0.2,0.5-0.3c0.1-0.1,0.2-0.1,0.3-0.1c0.1,0.1,0.2,0.1,0.3,0.2C22.5,18.5,22.2,18.4,21.9,18.5
		L21.9,18.5z M15.5,17.6C15.5,17.6,15.5,17.5,15.5,17.6c0.5-0.7,0.9-1.4,1.3-2.2c0.5-0.3,1-0.7,1.4-1.2c0.7-0.8,1.4-1.4,2.3-1.8
		c0.4-0.1,0.7-0.1,1.1,0.1c-0.1,0.2-0.3,0.1-0.5,0.3c-0.1,0-0.1,0-0.1-0.1c0,0,0.1-0.1,0.1-0.1c-0.4,0.5-1,0.7-1.3,1.2
		c-0.3,0.4-0.4,0.9-0.9,1.1c-0.2,0.1,0.1-0.1-0.1-0.1C17.4,15.5,16.5,16.5,15.5,17.6L15.5,17.6z M18.9,14.9c0,0.1-0.1,0.1-0.1,0.2
		c0,0.1-0.1,0.1-0.2,0.2c0,0-0.1,0-0.1-0.1c0-0.2,0.2-0.3,0.3-0.4C18.9,14.8,18.9,14.8,18.9,14.9L18.9,14.9z M20.9,21.1
		c0,0.1-0.1,0.1-0.1,0.1c0.1,0,0.1,0,0.1,0.1c-0.1,0.1-0.2,0.2-0.3,0.2h-0.1l-0.2,0.2c-0.1,0.1-0.3,0-0.2-0.1
		c0.1-0.1,0.2-0.2,0.3-0.3c0.1-0.1,0.1-0.1,0.2-0.2c0,0,0.1-0.1,0.1-0.1C20.7,21,20.9,21,20.9,21.1z M20.1,20.7L20.1,20.7
		c-0.2,0.1-0.3,0.2-0.5,0.3c-0.2,0.1-0.4,0.2-0.6,0.3l0,0c0,0-0.1,0-0.1,0c-0.2,0.1-0.3,0.2-0.4,0.3l-0.1,0.1l0,0l-0.1,0.1l0,0l0,0
		c0,0-0.1,0.1-0.1,0.1c0,0,0,0.1-0.1,0.1c0,0-0.1,0-0.1,0l0,0l-0.1,0l-0.1,0h0h0L17.9,22c-0.1,0.1-0.2,0.2-0.2,0.3l0,0l0,0v0l0,0
		l0,0l0,0.1l0,0l0,0c0,0,0,0,0,0v0c0,0,0-0.1,0-0.1l0,0v0l0.1-0.2l0,0l0.1-0.1l0.1-0.1l0,0c0.1-0.1,0.1-0.1,0.1-0.2l0,0l0,0
		c0,0,0.1-0.1,0.1-0.1l0.1-0.1l0,0l0,0v0c0,0,0-0.1,0-0.1l0,0v0c0,0,0,0,0-0.1l0,0l0,0c0,0,0-0.1,0-0.1v0c0.1-0.1,0.1-0.2,0.2-0.2
		h-0.1c-0.1,0-0.1,0.1-0.2,0.1c-0.1,0-0.1,0-0.1-0.1c0.1,0,0.1-0.1,0.1-0.1c0.1,0,0,0,0,0c0.1-0.1,0.1-0.2,0.2-0.2
		c0.1,0,0.1-0.1,0.1-0.1l0,0c0,0,0.1-0.1,0.1-0.1l0,0c0.4-0.4,1.1-0.4,1.6-0.6c0.2-0.1,0.4,0.1,0.7,0c0.1,0,0.3,0,0.4,0.1
		C20.8,20.3,20.5,20.5,20.1,20.7L20.1,20.7z M21,17.9c-0.1-0.1,0.1,0,0.2-0.1h-0.3c-0.1,0-0.1-0.1-0.1-0.1c-0.2,0-0.5,0.1-0.7,0.2
		c-0.3,0.1-0.6,0.3-0.9,0.4c-0.4,0.2-0.8,0.6-1.3,0.7c-0.1,0-0.1-0.1-0.1-0.1c0.1-0.1,0.2-0.2,0.3-0.3c0,0,0-0.1-0.1-0.1
		c0.3-0.5,0.8-0.7,1.2-1.1v-0.1c0.1-0.2,0.3-0.3,0.4-0.4c0.1-0.2,0.2-0.3,0.4-0.4c-0.1-0.1-0.1-0.1-0.1-0.1c-0.2,0-0.3,0.1-0.5-0.1
		c0.1-0.1,0.2-0.1,0.3-0.2c0,0-0.1,0-0.1-0.1c-0.1-0.1,0.1-0.2,0.2-0.2c0.1,0,0.4-0.1,0.5-0.2c-0.3-0.1-0.6,0.1-0.9-0.1
		c0.2-0.5,0.6-1,1-1.3c0,0,0.1,0,0.1,0.1c0,0.2-0.1,0.4-0.3,0.4c0.3,0.1,0.7,0.1,1,0.2c-0.1,0.1-0.1,0.1-0.2,0.1
		c0.2,0.1,0.5,0.1,0.7,0.2c-0.1,0.1-0.2,0-0.4,0c1.3,0.4,2.6,0.7,3.8,1.5c-0.9,0.4-1.9,0.7-2.9,0.9c-0.1,0-0.2,0-0.3-0.1
		c0,0.1,0,0.1-0.1,0.1c-0.1,0-0.3,0-0.4,0.1C21.4,18,21.2,18,21,17.9L21,17.9z"/>
	<path class="st2" d="M63.7,2.1H40.1c0.1,0,0.2,0.1,0.2,0.1l0.6,0.3c0.3,0.2,0.6,0.4,0.8,0.7c0.1,0.1,0.2,0.4,0.1,0.6
		c-0.1,0.2-0.1,0.6-0.3,0.6c-0.3,0.1-0.6,0.1-0.9,0.1c-0.2,0-0.3,0-0.5-0.1c0.6,0.3,1.2,0.6,1.6,1.1c0.1,0.1,0.2,0.1,0.4,0.1
		c0,0,0,0.1,0,0.1C42.1,5.8,42,5.9,42,6h0.1c0.2-0.1,0.2-0.5,0.5-0.4c0.2,0.1,0.3,0.4,0.2,0.6c-0.2,0.2-0.3,0.3-0.5,0.4
		c-0.1,0.1-0.1,0.2,0,0.3c0.1,0.2,0.2,0.3,0.2,0.5c0.1,0.3,0.2,0.6,0.3,0.9c0.2,0.6,0.3,1.2,0.3,1.9c0,0.3-0.2,0.6-0.1,0.9
		c0.1,0.3,0.3,0.6,0.5,0.9c0.2,0.2,0.3,0.4,0.4,0.7c0.3,0.4,0.7,0.8,0.5,1.3c-0.1,0.3-0.6,0.3-0.9,0.4c-0.2,0.2-0.1,0.6,0.1,0.8
		c0.2,0.4-0.3,0.6-0.6,0.8c0.1,0.1,0.2,0.1,0.3,0.2c0.1,0.2,0.3,0.3,0.1,0.6c-0.2,0.2-0.7,0.4-0.4,0.8c0.2,0.3,0.1,0.6-0.1,0.9
		c-0.1,0.3-0.4,0.6-0.8,0.6c-0.3,0.1-0.5,0.1-0.8,0.1C41.4,19,41.3,19,41.2,19c-0.7-0.1-1.4-0.3-2.1-0.3c-0.2,0-0.4,0.1-0.6,0.2
		c-0.2,0.1-0.3,0.3-0.5,0.4l0,0l-0.1,0.1l-0.1,0.1l0,0.1c-0.1,0.2-0.2,0.3-0.3,0.5l0,0c0,0,0,0,0,0.1c-0.1,0.2-0.2,0.5-0.3,0.8
		c-0.3,0.9-0.2,1.8,0,2c0.1,0.1,1.4,0.5,2.3,0.9c0.3,0.1,0.7,0.3,1,0.5h23.2L63.7,2.1z"/>
	<path class="st3" d="M41.5,10.1c0.2,0.1,0.4,0.1,0.4,0.1c-0.1,0.3-0.6,0.4-0.8,0.8h-0.1c-0.1,0.1-0.1,0.3-0.2,0.3
		c-0.1,0-0.3,0-0.4,0.1c0.2,0.2,0.4,0.3,0.6,0.3c0.1,0,0.1,0.1,0.1,0.2c0,0,0.1,0,0.1-0.1c0.1,0,0.1,0,0.1,0.1v0.2
		c-0.1,0.2-0.3,0.1-0.5,0.1c0.3,0.1,0.6,0.1,0.9,0c0.3-0.1,0-0.5,0.2-0.7c-0.1,0,0-0.1-0.1-0.1C41.9,11.1,42,11,42,11
		c0.1,0,0.2-0.1,0.2-0.1c0-0.1-0.2-0.1-0.1-0.2c0.3-0.2,0.4-0.4,0.4-0.7c-0.1-0.1-0.4-0.1-0.6-0.2c-0.2-0.1-0.5,0-0.7,0.1
		c-0.2,0-0.4,0.1-0.6,0.2c-0.3,0.1-0.6,0.2-0.8,0.4c0.3-0.1,0.6-0.2,0.9-0.3C41,10.1,41.2,10.1,41.5,10.1z"/>
</g>
<g class="st4">
	<path class="st0" d="M7.3,35h4.4L18,51.6h-3.6l-1.6-4.3H6.2l-1.6,4.3H1.1L7.3,35z M11.8,44.4l-2.3-6.2l-2.3,6.2H11.8z"/>
</g>
<g class="st4">
	<path class="st0" d="M32.1,46.6l2.6,2c-1.5,2-4,3.4-7,3.4c-5.2,0-8.8-4-8.8-8.7s3.6-8.7,8.8-8.7c3,0,5.5,1.3,7,3.4l-2.6,2
		c-0.9-1.3-2.4-2.3-4.3-2.3c-3.1,0-5.3,2.4-5.3,5.6s2.2,5.6,5.3,5.6C29.6,48.9,31.1,48,32.1,46.6z"/>
</g>
<g class="st4">
	<path class="st0" d="M41.9,35h4.4l6.2,16.5H49l-1.6-4.3h-6.6l-1.6,4.3h-3.6L41.9,35z M46.4,44.4l-2.3-6.2l-2.3,6.2H46.4z"/>
	<path class="st0" d="M55.3,35h6.5c5.2,0,8.8,3.8,8.8,8.3s-3.5,8.3-8.8,8.3h-6.5V35L55.3,35z M58.7,38.1v10.4h3.2
		c3.1,0,5.3-2.3,5.3-5.2c0-2.9-2.2-5.2-5.3-5.2L58.7,38.1L58.7,38.1z"/>
	<path class="st0" d="M74.1,35h9.6v2.9h-6.3v3.8h5.3v2.9h-5.3v4.1h6.3v2.9h-9.6V35z M77.3,33.6l2.7-3.2h3.4l-3.1,3.2H77.3z"/>
	<path class="st0" d="M87.8,35h4.2l4,6.8l4-6.8h4.2v16.5h-3.4V39.8l-3.7,6.1h-2.4l-3.7-6.1v11.8h-3.4L87.8,35L87.8,35z"/>
	<path class="st0" d="M109.1,35h3.4v16.5h-3.4V35z"/>
	<path class="st0" d="M117.3,35h9.6v2.9h-6.3v3.8h5.3v2.9h-5.3v4.1h6.3v2.9h-9.6V35z"/>
</g>
<g class="st4">
	<path class="st0" d="M3.1,59h6.5c5.2,0,8.8,3.8,8.8,8.3s-3.5,8.3-8.8,8.3H3.1V59z M6.5,62v10.4h3.2c3.1,0,5.3-2.3,5.3-5.2
		S12.7,62,9.7,62H6.5z"/>
	<path class="st0" d="M21.9,59h9.6v2.9h-6.3v3.8h5.3v2.9h-5.3v4.1h6.3v2.9h-9.6V59z"/>
</g>
<g class="st4">
	<path class="st0" d="M40.3,59h13.6v3h-5.1v13.5h-3.4V62h-5.1L40.3,59L40.3,59L40.3,59z"/>
</g>
<g class="st4">
	<path class="st0" d="M72.4,67.2c0,4.7-3.6,8.7-8.8,8.7c-5.2,0-8.8-4-8.8-8.7s3.6-8.7,8.8-8.7C68.9,58.5,72.4,62.5,72.4,67.2z
		 M69,67.2c0-3.2-2.2-5.6-5.3-5.6c-3.1,0-5.3,2.4-5.3,5.6c0,3.2,2.2,5.6,5.3,5.6C66.8,72.8,69,70.4,69,67.2z"/>
</g>
<g class="st4">
	<path class="st0" d="M85.6,59H89v10c0,4.4-2.5,7-6.7,7c-4.1,0-6.7-2.6-6.7-7V59h3.4v10.3c0,2.2,1.3,3.5,3.4,3.5
		c2,0,3.3-1.3,3.3-3.5L85.6,59L85.6,59z"/>
</g>
<g class="st4">
	<path class="st0" d="M93.4,59h3.4v13.5h6.3v3h-9.6V59L93.4,59z"/>
</g>
<g class="st4">
	<path class="st0" d="M121.7,67.2c0,4.7-3.6,8.7-8.8,8.7c-5.2,0-8.8-4-8.8-8.7s3.6-8.7,8.8-8.7C118.2,58.5,121.7,62.5,121.7,67.2z
		 M118.3,67.2c0-3.2-2.2-5.6-5.3-5.6c-3.1,0-5.3,2.4-5.3,5.6c0,3.2,2.2,5.6,5.3,5.6C116.1,72.8,118.3,70.4,118.3,67.2z"/>
</g>
<g class="st4">
	<path class="st0" d="M134.9,59h3.4v10c0,4.4-2.5,7-6.7,7c-4.1,0-6.7-2.6-6.7-7V59h3.4v10.3c0,2.2,1.3,3.5,3.4,3.5
		c2,0,3.3-1.3,3.3-3.5V59L134.9,59z"/>
	<path class="st0" d="M143.6,71c1,1.3,2.3,2,3.6,2c1.3,0,2.1-0.7,2.1-1.9c0-2.9-7.6-2.3-7.6-7.8c0-2.6,2.2-4.8,5.3-4.8
		c2.5,0,4.4,1.1,5.8,2.8l-2.5,2.2c-1-1.3-2-2-3.3-2c-1.2,0-1.9,0.8-1.9,1.7c0,2.9,7.6,2.3,7.6,7.9c-0.1,3.1-2.5,5-5.5,5
		c-2.8,0-4.7-1-6.1-2.8L143.6,71z"/>
	<path class="st0" d="M156.5,59h9.7v2.9h-6.3v3.8h5.3v2.9h-5.3v4.1h6.3v2.9h-9.6L156.5,59L156.5,59z"/>
</g>
</svg>
